<?xml version="1.0" encoding="UTF-8" standalone="no"?>
<!DOCTYPE svg PUBLIC "-//W3C//DTD SVG 1.1//EN"
 "http://www.w3.org/Graphics/SVG/1.1/DTD/svg11.dtd">
<!-- Generated by graphviz version 2.43.0 (0)
 -->
<!-- Title: tceetree Pages: 1 -->
<svg width="1326pt" height="476pt"
 viewBox="0.00 0.00 1326.01 476.00" xmlns="http://www.w3.org/2000/svg" xmlns:xlink="http://www.w3.org/1999/xlink">
<g id="graph0" class="graph" transform="scale(1 1) rotate(0) translate(4 472)">
<title>tceetree</title>
<polygon fill="white" stroke="transparent" points="-4,4 -4,-472 1322.01,-472 1322.01,4 -4,4"/>
<!-- main -->
<g id="node1" class="node">
<title>main</title>
<ellipse fill="none" stroke="black" cx="625.64" cy="-450" rx="33.6" ry="18"/>
<text text-anchor="middle" x="625.64" y="-446.3" font-family="Times,serif" font-size="14.00">main</text>
</g>
<!-- check_arguments -->
<g id="node2" class="node">
<title>check_arguments</title>
<ellipse fill="none" stroke="black" cx="91.64" cy="-378" rx="91.78" ry="18"/>
<text text-anchor="middle" x="91.64" y="-374.3" font-family="Times,serif" font-size="14.00">check_arguments</text>
</g>
<!-- main&#45;&gt;check_arguments -->
<g id="edge1" class="edge">
<title>main&#45;&gt;check_arguments</title>
<path fill="none" stroke="black" d="M592.83,-445.34C521.07,-437.26 344.79,-416.9 197.64,-396 188.4,-394.69 178.71,-393.24 169.11,-391.75"/>
<polygon fill="black" stroke="black" points="169.58,-388.28 159.16,-390.2 168.5,-395.2 169.58,-388.28"/>
</g>
<!-- socket -->
<g id="node4" class="node">
<title>socket</title>
<ellipse fill="none" stroke="black" cx="264.64" cy="-162" rx="40.09" ry="18"/>
<text text-anchor="middle" x="264.64" y="-158.3" font-family="Times,serif" font-size="14.00">socket</text>
</g>
<!-- main&#45;&gt;socket -->
<g id="edge3" class="edge">
<title>main&#45;&gt;socket</title>
<path fill="none" stroke="black" d="M592.07,-446.73C550.75,-442.49 480.01,-430.4 430.64,-396 352.3,-341.41 298,-237.4 275.82,-188.99"/>
<polygon fill="black" stroke="black" points="278.99,-187.5 271.7,-179.81 272.6,-190.37 278.99,-187.5"/>
</g>
<!-- prepare_http_request -->
<g id="node5" class="node">
<title>prepare_http_request</title>
<ellipse fill="none" stroke="black" cx="730.64" cy="-378" rx="111.28" ry="18"/>
<text text-anchor="middle" x="730.64" y="-374.3" font-family="Times,serif" font-size="14.00">prepare_http_request</text>
</g>
<!-- main&#45;&gt;prepare_http_request -->
<g id="edge4" class="edge">
<title>main&#45;&gt;prepare_http_request</title>
<path fill="none" stroke="black" d="M645.89,-435.5C660.4,-425.83 680.28,-412.57 697.14,-401.33"/>
<polygon fill="black" stroke="black" points="699.26,-404.13 705.64,-395.67 695.38,-398.3 699.26,-404.13"/>
</g>
<!-- socket_connect -->
<g id="node8" class="node">
<title>socket_connect</title>
<ellipse fill="none" stroke="black" cx="520.64" cy="-378" rx="81.49" ry="18"/>
<text text-anchor="middle" x="520.64" y="-374.3" font-family="Times,serif" font-size="14.00">socket_connect</text>
</g>
<!-- main&#45;&gt;socket_connect -->
<g id="edge7" class="edge">
<title>main&#45;&gt;socket_connect</title>
<path fill="none" stroke="black" d="M605.4,-435.5C590.78,-425.76 570.72,-412.39 553.79,-401.1"/>
<polygon fill="black" stroke="black" points="555.52,-398.05 545.26,-395.41 551.64,-403.87 555.52,-398.05"/>
</g>
<!-- socket_write -->
<g id="node26" class="node">
<title>socket_write</title>
<ellipse fill="none" stroke="black" cx="960.64" cy="-234" rx="69.59" ry="18"/>
<text text-anchor="middle" x="960.64" y="-230.3" font-family="Times,serif" font-size="14.00">socket_write</text>
</g>
<!-- main&#45;&gt;socket_write -->
<g id="edge31" class="edge">
<title>main&#45;&gt;socket_write</title>
<path fill="none" stroke="black" d="M658.87,-446.67C704.57,-442.28 788.24,-429.94 850.64,-396 891.23,-373.92 899.92,-362.39 925.64,-324 938.45,-304.88 947.64,-280.39 953.39,-261.93"/>
<polygon fill="black" stroke="black" points="956.81,-262.7 956.3,-252.11 950.1,-260.71 956.81,-262.7"/>
</g>
<!-- socket_read -->
<g id="node27" class="node">
<title>socket_read</title>
<ellipse fill="none" stroke="black" cx="1089.64" cy="-162" rx="65.79" ry="18"/>
<text text-anchor="middle" x="1089.64" y="-158.3" font-family="Times,serif" font-size="14.00">socket_read</text>
</g>
<!-- main&#45;&gt;socket_read -->
<g id="edge33" class="edge">
<title>main&#45;&gt;socket_read</title>
<path fill="none" stroke="black" d="M659.3,-448.19C711.5,-445.68 813.82,-435.62 889.64,-396 971.55,-353.2 983.07,-325.07 1039.64,-252 1054.89,-232.31 1068.46,-207.42 1077.6,-188.98"/>
<polygon fill="black" stroke="black" points="1080.75,-190.5 1081.97,-179.98 1074.45,-187.45 1080.75,-190.5"/>
</g>
<!-- http_remove -->
<g id="node3" class="node">
<title>http_remove</title>
<ellipse fill="none" stroke="black" cx="91.64" cy="-306" rx="69.59" ry="18"/>
<text text-anchor="middle" x="91.64" y="-302.3" font-family="Times,serif" font-size="14.00">http_remove</text>
</g>
<!-- check_arguments&#45;&gt;http_remove -->
<g id="edge2" class="edge">
<title>check_arguments&#45;&gt;http_remove</title>
<path fill="none" stroke="black" d="M91.64,-359.7C91.64,-351.98 91.64,-342.71 91.64,-334.11"/>
<polygon fill="black" stroke="black" points="95.14,-334.1 91.64,-324.1 88.14,-334.1 95.14,-334.1"/>
</g>
<!-- get_domain_name -->
<g id="node6" class="node">
<title>get_domain_name</title>
<ellipse fill="none" stroke="black" cx="701.64" cy="-306" rx="94.48" ry="18"/>
<text text-anchor="middle" x="701.64" y="-302.3" font-family="Times,serif" font-size="14.00">get_domain_name</text>
</g>
<!-- prepare_http_request&#45;&gt;get_domain_name -->
<g id="edge5" class="edge">
<title>prepare_http_request&#45;&gt;get_domain_name</title>
<path fill="none" stroke="black" d="M723.47,-359.7C720.21,-351.81 716.27,-342.3 712.64,-333.55"/>
<polygon fill="black" stroke="black" points="715.79,-332 708.73,-324.1 709.32,-334.68 715.79,-332"/>
</g>
<!-- get_path -->
<g id="node7" class="node">
<title>get_path</title>
<ellipse fill="none" stroke="black" cx="865.64" cy="-306" rx="51.19" ry="18"/>
<text text-anchor="middle" x="865.64" y="-302.3" font-family="Times,serif" font-size="14.00">get_path</text>
</g>
<!-- prepare_http_request&#45;&gt;get_path -->
<g id="edge6" class="edge">
<title>prepare_http_request&#45;&gt;get_path</title>
<path fill="none" stroke="black" d="M762.29,-360.59C782.25,-350.24 808.1,-336.84 828.96,-326.02"/>
<polygon fill="black" stroke="black" points="830.58,-329.12 837.85,-321.41 827.36,-322.91 830.58,-329.12"/>
</g>
<!-- socket_connect&#45;&gt;get_domain_name -->
<g id="edge8" class="edge">
<title>socket_connect&#45;&gt;get_domain_name</title>
<path fill="none" stroke="black" d="M559.47,-361.98C586.63,-351.48 623.12,-337.37 652.33,-326.07"/>
<polygon fill="black" stroke="black" points="653.87,-329.23 661.94,-322.35 651.35,-322.7 653.87,-329.23"/>
</g>
<!-- fill_sockaddr -->
<g id="node9" class="node">
<title>fill_sockaddr</title>
<ellipse fill="none" stroke="black" cx="520.64" cy="-306" rx="68.79" ry="18"/>
<text text-anchor="middle" x="520.64" y="-302.3" font-family="Times,serif" font-size="14.00">fill_sockaddr</text>
</g>
<!-- socket_connect&#45;&gt;fill_sockaddr -->
<g id="edge9" class="edge">
<title>socket_connect&#45;&gt;fill_sockaddr</title>
<path fill="none" stroke="black" d="M520.64,-359.7C520.64,-351.98 520.64,-342.71 520.64,-334.11"/>
<polygon fill="black" stroke="black" points="524.14,-334.1 520.64,-324.1 517.14,-334.1 524.14,-334.1"/>
</g>
<!-- connect -->
<g id="node13" class="node">
<title>connect</title>
<ellipse fill="none" stroke="black" cx="513.64" cy="-90" rx="46.59" ry="18"/>
<text text-anchor="middle" x="513.64" y="-86.3" font-family="Times,serif" font-size="14.00">connect</text>
</g>
<!-- socket_connect&#45;&gt;connect -->
<g id="edge30" class="edge">
<title>socket_connect&#45;&gt;connect</title>
<path fill="none" stroke="black" d="M472.34,-363.4C366.07,-331.21 128.15,-245.41 215.64,-144 251.3,-102.67 405.41,-120.1 458.64,-108 462.27,-107.18 466,-106.23 469.73,-105.22"/>
<polygon fill="black" stroke="black" points="470.88,-108.54 479.53,-102.43 468.96,-101.8 470.88,-108.54"/>
</g>
<!-- my_gethostbyname -->
<g id="node10" class="node">
<title>my_gethostbyname</title>
<ellipse fill="none" stroke="black" cx="520.64" cy="-234" rx="100.98" ry="18"/>
<text text-anchor="middle" x="520.64" y="-230.3" font-family="Times,serif" font-size="14.00">my_gethostbyname</text>
</g>
<!-- fill_sockaddr&#45;&gt;my_gethostbyname -->
<g id="edge10" class="edge">
<title>fill_sockaddr&#45;&gt;my_gethostbyname</title>
<path fill="none" stroke="black" d="M520.64,-287.7C520.64,-279.98 520.64,-270.71 520.64,-262.11"/>
<polygon fill="black" stroke="black" points="524.14,-262.1 520.64,-252.1 517.14,-262.1 524.14,-262.1"/>
</g>
<!-- resolve_error -->
<g id="node25" class="node">
<title>resolve_error</title>
<ellipse fill="none" stroke="black" cx="764.64" cy="-234" rx="72.59" ry="18"/>
<text text-anchor="middle" x="764.64" y="-230.3" font-family="Times,serif" font-size="14.00">resolve_error</text>
</g>
<!-- fill_sockaddr&#45;&gt;resolve_error -->
<g id="edge28" class="edge">
<title>fill_sockaddr&#45;&gt;resolve_error</title>
<path fill="none" stroke="black" d="M565.11,-292.24C605.54,-280.64 665.35,-263.48 708.95,-250.98"/>
<polygon fill="black" stroke="black" points="710.17,-254.27 718.82,-248.15 708.24,-247.54 710.17,-254.27"/>
</g>
<!-- my_gethostbyname&#45;&gt;socket -->
<g id="edge13" class="edge">
<title>my_gethostbyname&#45;&gt;socket</title>
<path fill="none" stroke="black" d="M462.16,-219.21C420.74,-209.14 364.01,-194.72 314.64,-180 311.48,-179.06 308.22,-178.04 304.95,-177"/>
<polygon fill="black" stroke="black" points="305.79,-173.59 295.2,-173.8 303.61,-180.24 305.79,-173.59"/>
</g>
<!-- get_dns_server -->
<g id="node11" class="node">
<title>get_dns_server</title>
<ellipse fill="none" stroke="black" cx="404.64" cy="-162" rx="81.49" ry="18"/>
<text text-anchor="middle" x="404.64" y="-158.3" font-family="Times,serif" font-size="14.00">get_dns_server</text>
</g>
<!-- my_gethostbyname&#45;&gt;get_dns_server -->
<g id="edge11" class="edge">
<title>my_gethostbyname&#45;&gt;get_dns_server</title>
<path fill="none" stroke="black" d="M493.45,-216.59C477.48,-206.95 457.12,-194.67 439.93,-184.3"/>
<polygon fill="black" stroke="black" points="441.64,-181.24 431.27,-179.07 438.02,-187.23 441.64,-181.24"/>
</g>
<!-- my_gethostbyname&#45;&gt;connect -->
<g id="edge14" class="edge">
<title>my_gethostbyname&#45;&gt;connect</title>
<path fill="none" stroke="black" d="M519.8,-215.87C518.6,-191.67 516.41,-147.21 514.99,-118.39"/>
<polygon fill="black" stroke="black" points="518.48,-118 514.49,-108.19 511.49,-118.35 518.48,-118"/>
</g>
<!-- send_query -->
<g id="node14" class="node">
<title>send_query</title>
<ellipse fill="none" stroke="black" cx="641.64" cy="-90" rx="63.89" ry="18"/>
<text text-anchor="middle" x="641.64" y="-86.3" font-family="Times,serif" font-size="14.00">send_query</text>
</g>
<!-- my_gethostbyname&#45;&gt;send_query -->
<g id="edge15" class="edge">
<title>my_gethostbyname&#45;&gt;send_query</title>
<path fill="none" stroke="black" d="M527.64,-215.93C535.97,-196.96 551.23,-166.1 570.64,-144 581.12,-132.07 594.68,-121.15 607.15,-112.36"/>
<polygon fill="black" stroke="black" points="609.26,-115.16 615.55,-106.63 605.31,-109.37 609.26,-115.16"/>
</g>
<!-- wait_dns -->
<g id="node18" class="node">
<title>wait_dns</title>
<ellipse fill="none" stroke="black" cx="795.64" cy="-162" rx="51.99" ry="18"/>
<text text-anchor="middle" x="795.64" y="-158.3" font-family="Times,serif" font-size="14.00">wait_dns</text>
</g>
<!-- my_gethostbyname&#45;&gt;wait_dns -->
<g id="edge19" class="edge">
<title>my_gethostbyname&#45;&gt;wait_dns</title>
<path fill="none" stroke="black" d="M578.43,-219.17C621.56,-208.73 681.89,-193.88 734.64,-180 738.65,-178.95 742.8,-177.83 746.96,-176.7"/>
<polygon fill="black" stroke="black" points="747.92,-180.07 756.64,-174.05 746.07,-173.32 747.92,-180.07"/>
</g>
<!-- read_address -->
<g id="node24" class="node">
<title>read_address</title>
<ellipse fill="none" stroke="black" cx="652.64" cy="-162" rx="72.59" ry="18"/>
<text text-anchor="middle" x="652.64" y="-158.3" font-family="Times,serif" font-size="14.00">read_address</text>
</g>
<!-- my_gethostbyname&#45;&gt;read_address -->
<g id="edge27" class="edge">
<title>my_gethostbyname&#45;&gt;read_address</title>
<path fill="none" stroke="black" d="M551.26,-216.76C570.01,-206.82 594.18,-194 614.22,-183.38"/>
<polygon fill="black" stroke="black" points="615.91,-186.44 623.1,-178.67 612.63,-180.26 615.91,-186.44"/>
</g>
<!-- my_readline -->
<g id="node12" class="node">
<title>my_readline</title>
<ellipse fill="none" stroke="black" cx="381.64" cy="-90" rx="67.69" ry="18"/>
<text text-anchor="middle" x="381.64" y="-86.3" font-family="Times,serif" font-size="14.00">my_readline</text>
</g>
<!-- get_dns_server&#45;&gt;my_readline -->
<g id="edge12" class="edge">
<title>get_dns_server&#45;&gt;my_readline</title>
<path fill="none" stroke="black" d="M398.96,-143.7C396.39,-135.9 393.31,-126.51 390.46,-117.83"/>
<polygon fill="black" stroke="black" points="393.71,-116.51 387.26,-108.1 387.06,-118.7 393.71,-116.51"/>
</g>
<!-- initialize_header -->
<g id="node15" class="node">
<title>initialize_header</title>
<ellipse fill="none" stroke="black" cx="234.64" cy="-18" rx="87.18" ry="18"/>
<text text-anchor="middle" x="234.64" y="-14.3" font-family="Times,serif" font-size="14.00">initialize_header</text>
</g>
<!-- send_query&#45;&gt;initialize_header -->
<g id="edge16" class="edge">
<title>send_query&#45;&gt;initialize_header</title>
<path fill="none" stroke="black" d="M595.29,-77.46C586.78,-75.51 577.97,-73.61 569.64,-72 464.17,-51.64 436.65,-53.37 330.64,-36 323.27,-34.79 315.58,-33.49 307.91,-32.18"/>
<polygon fill="black" stroke="black" points="308.31,-28.69 297.86,-30.43 307.12,-35.59 308.31,-28.69"/>
</g>
<!-- change_to_dns_name_format -->
<g id="node16" class="node">
<title>change_to_dns_name_format</title>
<ellipse fill="none" stroke="black" cx="483.64" cy="-18" rx="143.77" ry="18"/>
<text text-anchor="middle" x="483.64" y="-14.3" font-family="Times,serif" font-size="14.00">change_to_dns_name_format</text>
</g>
<!-- send_query&#45;&gt;change_to_dns_name_format -->
<g id="edge17" class="edge">
<title>send_query&#45;&gt;change_to_dns_name_format</title>
<path fill="none" stroke="black" d="M608.9,-74.5C586.14,-64.41 555.47,-50.82 530.17,-39.61"/>
<polygon fill="black" stroke="black" points="531.33,-36.3 520.77,-35.45 528.49,-42.7 531.33,-36.3"/>
</g>
<!-- write -->
<g id="node17" class="node">
<title>write</title>
<ellipse fill="none" stroke="black" cx="1018.64" cy="-18" rx="35.19" ry="18"/>
<text text-anchor="middle" x="1018.64" y="-14.3" font-family="Times,serif" font-size="14.00">write</text>
</g>
<!-- send_query&#45;&gt;write -->
<g id="edge18" class="edge">
<title>send_query&#45;&gt;write</title>
<path fill="none" stroke="black" d="M696.02,-80.49C788.7,-65.98 967.95,-37.8 974.64,-36 977.29,-35.29 980,-34.47 982.72,-33.58"/>
<polygon fill="black" stroke="black" points="984.15,-36.79 992.42,-30.17 981.82,-30.19 984.15,-36.79"/>
</g>
<!-- wait_dns&#45;&gt;connect -->
<g id="edge25" class="edge">
<title>wait_dns&#45;&gt;connect</title>
<path fill="none" stroke="black" d="M757.01,-149.87C749.6,-147.84 741.9,-145.8 734.64,-144 661.36,-125.86 641.66,-127.16 568.64,-108 565.25,-107.11 561.76,-106.15 558.26,-105.14"/>
<polygon fill="black" stroke="black" points="559.01,-101.72 548.43,-102.25 557.03,-108.43 559.01,-101.72"/>
</g>
<!-- wait_dns&#45;&gt;send_query -->
<g id="edge26" class="edge">
<title>wait_dns&#45;&gt;send_query</title>
<path fill="none" stroke="black" d="M765.22,-147.17C741.72,-136.49 708.95,-121.59 683.06,-109.83"/>
<polygon fill="black" stroke="black" points="684.41,-106.6 673.86,-105.65 681.52,-112.97 684.41,-106.6"/>
</g>
<!-- timer -->
<g id="node19" class="node">
<title>timer</title>
<ellipse fill="none" stroke="black" cx="795.64" cy="-90" rx="36.29" ry="18"/>
<text text-anchor="middle" x="795.64" y="-86.3" font-family="Times,serif" font-size="14.00">timer</text>
</g>
<!-- wait_dns&#45;&gt;timer -->
<g id="edge20" class="edge">
<title>wait_dns&#45;&gt;timer</title>
<path fill="none" stroke="black" d="M795.64,-143.7C795.64,-135.98 795.64,-126.71 795.64,-118.11"/>
<polygon fill="black" stroke="black" points="799.14,-118.1 795.64,-108.1 792.14,-118.1 799.14,-118.1"/>
</g>
<!-- read -->
<g id="node23" class="node">
<title>read</title>
<ellipse fill="none" stroke="black" cx="935.64" cy="-90" rx="31.7" ry="18"/>
<text text-anchor="middle" x="935.64" y="-86.3" font-family="Times,serif" font-size="14.00">read</text>
</g>
<!-- wait_dns&#45;&gt;read -->
<g id="edge24" class="edge">
<title>wait_dns&#45;&gt;read</title>
<path fill="none" stroke="black" d="M823.97,-146.83C846.97,-135.34 879.39,-119.12 903.38,-107.13"/>
<polygon fill="black" stroke="black" points="905.07,-110.2 912.45,-102.6 901.94,-103.94 905.07,-110.2"/>
</g>
<!-- FD_ZERO -->
<g id="node20" class="node">
<title>FD_ZERO</title>
<ellipse fill="none" stroke="black" cx="795.64" cy="-18" rx="55.79" ry="18"/>
<text text-anchor="middle" x="795.64" y="-14.3" font-family="Times,serif" font-size="14.00">FD_ZERO</text>
</g>
<!-- timer&#45;&gt;FD_ZERO -->
<g id="edge21" class="edge">
<title>timer&#45;&gt;FD_ZERO</title>
<path fill="none" stroke="black" d="M795.64,-71.7C795.64,-63.98 795.64,-54.71 795.64,-46.11"/>
<polygon fill="black" stroke="black" points="799.14,-46.1 795.64,-36.1 792.14,-46.1 799.14,-46.1"/>
</g>
<!-- FD_SET -->
<g id="node21" class="node">
<title>FD_SET</title>
<ellipse fill="none" stroke="black" cx="917.64" cy="-18" rx="48.19" ry="18"/>
<text text-anchor="middle" x="917.64" y="-14.3" font-family="Times,serif" font-size="14.00">FD_SET</text>
</g>
<!-- timer&#45;&gt;FD_SET -->
<g id="edge22" class="edge">
<title>timer&#45;&gt;FD_SET</title>
<path fill="none" stroke="black" d="M818.59,-75.83C836.87,-65.35 862.74,-50.5 883.45,-38.62"/>
<polygon fill="black" stroke="black" points="885.34,-41.57 892.27,-33.56 881.86,-35.5 885.34,-41.57"/>
</g>
<!-- select -->
<g id="node22" class="node">
<title>select</title>
<ellipse fill="none" stroke="black" cx="683.64" cy="-18" rx="38.19" ry="18"/>
<text text-anchor="middle" x="683.64" y="-14.3" font-family="Times,serif" font-size="14.00">select</text>
</g>
<!-- timer&#45;&gt;select -->
<g id="edge23" class="edge">
<title>timer&#45;&gt;select</title>
<path fill="none" stroke="black" d="M774.05,-75.5C757.15,-64.94 733.42,-50.11 714.51,-38.29"/>
<polygon fill="black" stroke="black" points="716.27,-35.27 705.94,-32.93 712.56,-41.2 716.27,-35.27"/>
</g>
<!-- resolve_error&#45;&gt;write -->
<g id="edge29" class="edge">
<title>resolve_error&#45;&gt;write</title>
<path fill="none" stroke="black" d="M802.98,-218.42C821.41,-209.72 842.51,-197.01 856.64,-180 889.16,-140.86 859.86,-109.14 894.64,-72 897.89,-68.53 946.83,-48.17 982.24,-33.72"/>
<polygon fill="black" stroke="black" points="983.87,-36.84 991.82,-29.82 981.23,-30.35 983.87,-36.84"/>
</g>
<!-- socket_write&#45;&gt;write -->
<g id="edge32" class="edge">
<title>socket_write&#45;&gt;write</title>
<path fill="none" stroke="black" d="M965.29,-215.85C975.37,-178.66 999.3,-90.37 1011.39,-45.77"/>
<polygon fill="black" stroke="black" points="1014.81,-46.5 1014.05,-35.94 1008.06,-44.67 1014.81,-46.5"/>
</g>
<!-- socket_read&#45;&gt;write -->
<g id="edge37" class="edge">
<title>socket_read&#45;&gt;write</title>
<path fill="none" stroke="black" d="M1152.68,-156.65C1232.36,-148.79 1353.9,-127.51 1307.64,-72 1277.14,-35.4 1137.26,-23.99 1063.88,-20.5"/>
<polygon fill="black" stroke="black" points="1063.7,-16.99 1053.55,-20.04 1063.39,-23.98 1063.7,-16.99"/>
</g>
<!-- socket_read&#45;&gt;read -->
<g id="edge34" class="edge">
<title>socket_read&#45;&gt;read</title>
<path fill="none" stroke="black" d="M1057.36,-146.33C1031.44,-134.54 995.17,-118.06 968.97,-106.15"/>
<polygon fill="black" stroke="black" points="970.37,-102.94 959.81,-101.99 967.47,-109.31 970.37,-102.94"/>
</g>
<!-- find_length -->
<g id="node28" class="node">
<title>find_length</title>
<ellipse fill="none" stroke="black" cx="1085.64" cy="-90" rx="62.29" ry="18"/>
<text text-anchor="middle" x="1085.64" y="-86.3" font-family="Times,serif" font-size="14.00">find_length</text>
</g>
<!-- socket_read&#45;&gt;find_length -->
<g id="edge35" class="edge">
<title>socket_read&#45;&gt;find_length</title>
<path fill="none" stroke="black" d="M1088.65,-143.7C1088.21,-135.98 1087.68,-126.71 1087.19,-118.11"/>
<polygon fill="black" stroke="black" points="1090.68,-117.89 1086.62,-108.1 1083.7,-118.29 1090.68,-117.89"/>
</g>
<!-- skip_header -->
<g id="node29" class="node">
<title>skip_header</title>
<ellipse fill="none" stroke="black" cx="1232.64" cy="-90" rx="66.09" ry="18"/>
<text text-anchor="middle" x="1232.64" y="-86.3" font-family="Times,serif" font-size="14.00">skip_header</text>
</g>
<!-- socket_read&#45;&gt;skip_header -->
<g id="edge36" class="edge">
<title>socket_read&#45;&gt;skip_header</title>
<path fill="none" stroke="black" d="M1120.32,-145.98C1141.52,-135.6 1169.94,-121.7 1192.88,-110.47"/>
<polygon fill="black" stroke="black" points="1194.57,-113.53 1202.02,-105.99 1191.5,-107.25 1194.57,-113.53"/>
</g>
</g>
</svg>
